<svg xmlns="http://www.w3.org/2000/svg" data-name="Layer 1" viewBox="0 0 100 125" x="0px" y="0px">
    <g data-name="Group" fill="#E26D5A">
        <path data-name="Compound Path" d="M9.6,90.4a2,2,0,0,0,2.8,0L37.9,64.9l9.3,9.3a2,2,0,0,0,2.8,0L61.5,62.6,87,88.1a2,2,0,0,0,2.8-2.8L63,58.4l-9.3-9.3,5.6-5.6a13.9,13.9,0,0,0,18.1-1.3l13-13a2,2,0,0,0-2.8-2.8l-13,13a9.9,9.9,0,0,1-12.4,1.3L82,20.8A2,2,0,0,0,79.2,18L59.4,37.8a9.9,9.9,0,0,1,1.3-12.4l13-13a2,2,0,0,0-2.8-2.8l-13,13a13.9,13.9,0,0,0-1.3,18.1l-5.6,5.6L21.1,16.5a2,2,0,0,0-3.3.8l-1.4,4.4a27.9,27.9,0,0,0,6.8,28.5l12,12L9.6,87.6A2,2,0,0,0,9.6,90.4ZM20.1,22.9l.4-1.3L58.7,59.8,48.6,69.9,26,47.3A23.9,23.9,0,0,1,20.1,22.9Z"/>
    </g>
</svg>
